# xmcd CD database file
#
# Track frame offsets:
#	150
#	20858
#	44261
#	69366
#	92001
#	112014
#	126662
#	151868
#	170664
#	188061
#	206671
#	224558
#	250121
#	272400
#	293691
#	319591
#
# Disc length: 4510 seconds
#
# Revision: 0
# Processed by: cddbd v1.5.2PL0 Copyright (c) Steve Scherf et al.
# Submitted via: Feurio! 1.68 - http://www.feurio.com
#
DISCID=ee119c10
DTITLE=童丽 - 一听钟情-试音童丽DSD.专辑
DYEAR=1900
DGENRE=
TTITLE0=自《梦江南》
TTITLE1=春光美―选自《对话十童丽与古筝的邂逅》
TTITLE2=―选自《对话二古筝与童丽》
TTITLE3=葬花吟―选自《烟花三月XRCD》
TTITLE4=真的好想你―选自《渭城曲》
TTITLE5=太湖美―选自《对话十二古筝与童丽的故事》
TTITLE6=夜―选自《相见太晚》
TTITLE7=一水隔天涯―选自《相思泪XRCD》
TTITLE8=小河淌水―选自《红豆生江南》
TTITLE9=梦江南―选自《梦江南》
TTITLE10=难―选自《别亦难》
TTITLE11=女人花―选自《想念你》
TTITLE12=长久―选自《君再来Ⅳ》
TTITLE13=烟花三月―选自《烟花三月XRCD》
TTITLE14=十送红军―选自《独家爱唱Ⅱ》
TTITLE15=长相依―选自《烟花三月XRCD》
EXTD=
EXTT0=
EXTT1=
EXTT2=
EXTT3=
EXTT4=
EXTT5=
EXTT6=
EXTT7=
EXTT8=
EXTT9=
EXTT10=
EXTT11=
EXTT12=
EXTT13=
EXTT14=
EXTT15=
PLAYORDER=
